# WaveFront *.obj file (generated by CINEMA 4D)

mtllib ./test.mtl

v 0 1 0
v 1 -1 0
v -0.5 -1 0.86602538824081
v -0.5 -1 -0.86602538824081
# 4 vertices

vn -0.97014248371124 0.24253562092781 0
vn 0.48507124185562 0.24253562092781 0.84016805887222
vn 0.48507124185562 0.24253562092781 -0.84016805887222
vn 0 -1 0
vn 0 0 0
# 5 normals

vt 0.33333334326744 0 0
vt 0.33333334326744 1 0
vt 0.66666668653488 1 0
vt 0.66666668653488 0 0
vt 0 0 0
vt 0 1 0
vt 1 1 0
vt 1 0 0
# 8 texture coordinates

o Cone
usemtl default
f 3/1/1 1/2/1 1/3/1 4/4/1
f 2/5/2 1/6/2 1/2/2 3/1/2
f 4/4/3 1/3/3 1/7/3 2/8/3
f 2/6/4 3/7/4 4/8/4

